<?xml version="1.0" encoding="UTF-8"?> <svg xmlns="http://www.w3.org/2000/svg" xmlns:xlink="http://www.w3.org/1999/xlink" width="500.627" height="41.999" viewBox="0 0 500.627 41.999"><defs><clipPath id="clip-path"><rect id="Rectangle_4" data-name="Rectangle 4" width="500.627" height="41.999" transform="translate(0 0)" fill="none"></rect></clipPath></defs><g id="Group_3" data-name="Group 3" transform="translate(0 0)"><g id="Group_2" data-name="Group 2" clip-path="url(#clip-path)"><path id="Path_2" data-name="Path 2" d="M28.619,22.868A9.211,9.211,0,0,0,26,20.858,7.782,7.782,0,0,0,23.042,20a5.026,5.026,0,0,0,2.652-.859,8.126,8.126,0,0,0,2.071-1.967,10.164,10.164,0,0,0,1.359-2.548,7.757,7.757,0,0,0,.495-2.6A14.37,14.37,0,0,0,28.676,6.4a8.442,8.442,0,0,0-2.543-3.437,9.2,9.2,0,0,0-3.751-1.715A21.519,21.519,0,0,0,17.791.771H0V7.627H17.791a3.373,3.373,0,0,1,1.576.387,4.561,4.561,0,0,1,1.3,1,4.909,4.909,0,0,1,.887,1.443,4.624,4.624,0,0,1,.331,1.722,5.715,5.715,0,0,1-.307,1.81,5.106,5.106,0,0,1-.882,1.639,4.474,4.474,0,0,1-1.434,1.166,4.316,4.316,0,0,1-2.02.448H8.379v.016H0v6.794H8.219v.038h9.629a5.962,5.962,0,0,1,4.171,1.387A4.436,4.436,0,0,1,23.538,28.9a5.176,5.176,0,0,1-.387,1.958A6.552,6.552,0,0,1,22.1,32.629,5.006,5.006,0,0,1,20.551,33.9a3.932,3.932,0,0,1-1.877.467H8.219v.024H0v6.827H18.674a18.979,18.979,0,0,0,4.892-.6,10.421,10.421,0,0,0,4.006-2.01,9.669,9.669,0,0,0,2.708-3.694,13.993,13.993,0,0,0,.995-5.6,8.467,8.467,0,0,0-.75-3.529,10.892,10.892,0,0,0-1.906-2.92" fill="#002c4c"></path><rect id="Rectangle_3" data-name="Rectangle 3" width="29.784" height="6.959" transform="translate(49.458 34.261)" fill="#002c4c"></rect><path id="Path_3" data-name="Path 3" d="M49.458,24.76H76.751V17.737H57.2v-.026H49.458Z" fill="#002c4c"></path><path id="Path_4" data-name="Path 4" d="M49.458,7.627H79.242V.772H49.458Z" fill="#002c4c"></path><path id="Path_5" data-name="Path 5" d="M105.984.771H98.246V41.22H127.37V34.37H105.984Z" fill="#002c4c"></path><path id="Path_6" data-name="Path 6" d="M151.017.771h-7.733V41.22H172.4V34.37H151.017Z" fill="#002c4c"></path><path id="Path_7" data-name="Path 7" d="M204.891.828,184.226,41.221h8.4l3.1-6.351,9.554-18.956,12.658,25.307h8.4L205.665.828Z" fill="#002c4c"></path><path id="Path_8" data-name="Path 8" d="M281.412,23.043,271.136.829h-.5l-10.28,22.157L252.458.829h-8.233l14.923,40.449h.717l11.05-23.595,10.941,23.538h.773L297.717.829h-8.233Z" fill="#fff"></path><path id="Path_9" data-name="Path 9" d="M345.217,6.162a21.28,21.28,0,0,0-6.667-4.5,20.85,20.85,0,0,0-16.3,0,21.162,21.162,0,0,0-11.162,11.187A20.316,20.316,0,0,0,309.431,21a20.215,20.215,0,0,0,1.661,8.176,21.2,21.2,0,0,0,11.162,11.163,20.827,20.827,0,0,0,16.3,0,21.112,21.112,0,0,0,11.164-11.163A20.312,20.312,0,0,0,351.369,21a20.413,20.413,0,0,0-1.655-8.155,21.319,21.319,0,0,0-4.5-6.683m-2.632,20.084a14.38,14.38,0,0,1-2.841,4.393,13.733,13.733,0,0,1-4.185,3.042,12.3,12.3,0,0,1-10.313,0,13.721,13.721,0,0,1-4.185-3.042,14.447,14.447,0,0,1-2.845-4.393,13.554,13.554,0,0,1,0-10.471,14.023,14.023,0,0,1,7.03-7.4,12.31,12.31,0,0,1,10.313,0,14,14,0,0,1,7.026,7.4,13.506,13.506,0,0,1,0,10.471" fill="#fff"></path><path id="Path_10" data-name="Path 10" d="M399.3,22.71a14.031,14.031,0,0,0,2.3-8.011,15.005,15.005,0,0,0-1.029-5.61,12.967,12.967,0,0,0-2.85-4.421,12.622,12.622,0,0,0-4.4-2.873A15.22,15.22,0,0,0,387.655.771H369.284V7.634h7.728V7.627h10.634a5.978,5.978,0,0,1,3.241.771,5.658,5.658,0,0,1,1.878,1.88,6.915,6.915,0,0,1,.882,2.321,12.524,12.524,0,0,1,.222,2.1,7.284,7.284,0,0,1-.58,2.984,6.884,6.884,0,0,1-1.458,2.125,5.748,5.748,0,0,1-2.015,1.274,6.311,6.311,0,0,1-2.17.415H377.512l-8.228.026v19.7h7.728V28.35h7.662q2.307,3.312,4.619,6.52t4.736,6.351h9.229q-4.968-6.851-10.073-13.593A12.781,12.781,0,0,0,399.3,22.71" fill="#fff"></path><path id="Path_11" data-name="Path 11" d="M453.428.828h-9.5l-16.088,20.5V.771h-7.728v40.45h7.728v-18.4l16.97,18.4h10.219l-18.23-19.5Z" fill="#fff"></path><path id="Path_12" data-name="Path 12" d="M499.82,25a9.778,9.778,0,0,0-2.1-3.206,11.522,11.522,0,0,0-2.963-2.128,20.176,20.176,0,0,0-3.345-1.326,30.117,30.117,0,0,0-3.25-.773c-1.057-.184-1.968-.368-2.742-.555q-1.549-.385-3.2-.771a21.291,21.291,0,0,1-3.043-.939,7.129,7.129,0,0,1-2.26-1.382,2.7,2.7,0,0,1-.892-2.045,3.01,3.01,0,0,1,.755-2.072A5.785,5.785,0,0,1,478.66,8.4a9.684,9.684,0,0,1,2.4-.8,12.135,12.135,0,0,1,2.269-.25,15.106,15.106,0,0,1,5.581,1.05,27.739,27.739,0,0,1,5.52,3.04l4.322-6.081c-1.255-.882-2.43-1.644-3.515-2.288A19.565,19.565,0,0,0,488.186.5a27.718,27.718,0,0,0-4.53-.332,26.715,26.715,0,0,0-5.279.554,15.48,15.48,0,0,0-4.968,1.906,10.835,10.835,0,0,0-3.68,3.7,11.2,11.2,0,0,0-1.43,5.886,10.325,10.325,0,0,0,.8,4.228,9.915,9.915,0,0,0,2.128,3.092,12.388,12.388,0,0,0,2.982,2.159,20.377,20.377,0,0,0,3.373,1.38,29.32,29.32,0,0,0,3.312.825c1.066.208,2.01.382,2.822.529,1.217.221,2.382.457,3.505.717a16.441,16.441,0,0,1,2.93.939,5.688,5.688,0,0,1,1.986,1.41,3.049,3.049,0,0,1,.746,2.071,4.137,4.137,0,0,1-.491,1.906,5.111,5.111,0,0,1-1.5,1.718,8.413,8.413,0,0,1-2.429,1.212,10.667,10.667,0,0,1-3.317.472,15.811,15.811,0,0,1-6.775-1.519,43.8,43.8,0,0,1-6.266-3.624l-4.208,6.2q1.882,1.317,3.657,2.43a23.708,23.708,0,0,0,3.755,1.906,24.178,24.178,0,0,0,4.388,1.269,29,29,0,0,0,5.562.472,23.641,23.641,0,0,0,6.242-.779,14.3,14.3,0,0,0,4.859-2.292,10.109,10.109,0,0,0,3.152-3.841,12.608,12.608,0,0,0,1.109-5.468A11.9,11.9,0,0,0,499.82,25" fill="#fff"></path></g></g></svg> 