<?xml version="1.0" encoding="UTF-8"?> <svg xmlns="http://www.w3.org/2000/svg" width="409.426" height="302.891" viewBox="0 0 409.426 302.891"><g id="Group_71" data-name="Group 71" transform="translate(-468.928 -251.34)"><path id="Path_59" data-name="Path 59" d="M833.424,357.855a44.93,44.93,0,1,0,44.93,44.931,44.931,44.931,0,0,0-44.93-44.931" fill="#6daf93"></path><path id="Path_60" data-name="Path 60" d="M833.424,251.34a44.93,44.93,0,1,0,44.93,44.931,44.931,44.931,0,0,0-44.93-44.931" fill="#db6e35"></path><path id="Path_61" data-name="Path 61" d="M833.424,464.37a44.931,44.931,0,1,0,44.93,44.931,44.931,44.931,0,0,0-44.93-44.931" fill="#3689b4"></path><path id="Path_62" data-name="Path 62" d="M726.9,357.855a44.93,44.93,0,1,0,44.931,44.931A44.931,44.931,0,0,0,726.9,357.855" fill="#b8dfcf"></path><path id="Path_63" data-name="Path 63" d="M726.9,251.34a44.93,44.93,0,1,0,44.931,44.931A44.931,44.931,0,0,0,726.9,251.34" fill="#3689b4"></path><path id="Path_64" data-name="Path 64" d="M726.9,464.37A44.931,44.931,0,1,0,771.833,509.3,44.931,44.931,0,0,0,726.9,464.37" fill="#d1d374"></path><path id="Path_65" data-name="Path 65" d="M620.381,357.855a44.93,44.93,0,1,0,44.931,44.931,44.931,44.931,0,0,0-44.931-44.931" fill="#3689b4"></path><path id="Path_66" data-name="Path 66" d="M620.381,251.34a44.93,44.93,0,1,0,44.931,44.931,44.931,44.931,0,0,0-44.931-44.931" fill="#d1d374"></path><path id="Path_67" data-name="Path 67" d="M620.381,464.37A44.931,44.931,0,1,0,665.312,509.3a44.931,44.931,0,0,0-44.931-44.931" fill="#db6e35"></path><path id="Path_68" data-name="Path 68" d="M513.859,464.37A44.931,44.931,0,1,0,558.79,509.3a44.931,44.931,0,0,0-44.931-44.931" fill="#b8dfcf"></path></g></svg> 