<svg id="Group_22" data-name="Group 22" xmlns="http://www.w3.org/2000/svg" xmlns:xlink="http://www.w3.org/1999/xlink" width="397.31" height="472.476" viewBox="0 0 397.31 472.476">
  <defs>
    <clipPath id="clip-path">
      <rect id="Rectangle_13" data-name="Rectangle 13" width="397.31" height="472.476" fill="none"/>
    </clipPath>
  </defs>
  <g id="Group_21" data-name="Group 21" clip-path="url(#clip-path)">
    <path id="Path_16" data-name="Path 16" d="M354.84,114.456,346.148,105a4.552,4.552,0,0,0-2.892-1.447L323.991,101.6a4.537,4.537,0,0,0-.727-.01,20.893,20.893,0,1,0,.7,9.152l16.655,1.685,8.692,9.456a4.55,4.55,0,0,0,2.891,1.447l10.93,1.106.916-9.052Zm-52.727,5.006a11.789,11.789,0,1,1,12.916-10.543,11.8,11.8,0,0,1-12.916,10.543" fill="#6daf93"/>
    <path id="Path_17" data-name="Path 17" d="M272.175,178.337a4.549,4.549,0,0,0,0-9.1h-30.35v9.1Z" fill="#6daf93"/>
    <path id="Path_18" data-name="Path 18" d="M370.176,102.877a4.549,4.549,0,0,0-1.332-3.217L355.653,86.469V68.989a4.64,4.64,0,0,0-.053-.661,20.882,20.882,0,1,0-8.953-.253,4.512,4.512,0,0,0-.092.914V88.354a4.548,4.548,0,0,0,1.332,3.216l13.191,13.191V150.17h9.1ZM339.917,47.81A11.789,11.789,0,1,1,351.706,59.6,11.8,11.8,0,0,1,339.917,47.81" fill="#6daf93"/>
    <path id="Path_19" data-name="Path 19" d="M286.464,145.66l14.427,25.525a4.549,4.549,0,0,0,3.961,2.311h38.684a20.9,20.9,0,1,0,.544-9.1H307.506l-14.427-25.525a4.552,4.552,0,0,0-3.961-2.311H241.825v9.1Zm77.69,12.708a11.789,11.789,0,1,1-11.789,11.789,11.8,11.8,0,0,1,11.789-11.789" fill="#6daf93"/>
    <path id="Path_20" data-name="Path 20" d="M401.135,118.746a4.549,4.549,0,0,0,0-9.1h-32.77v9.1Z" fill="#6daf93"/>
    <path id="Path_21" data-name="Path 21" d="M304.346,190.3l-12.5,8.331a4.551,4.551,0,0,0-2.026,3.785v24.206a4.561,4.561,0,0,0,.072.78,20.889,20.889,0,1,0,8.955,0,4.561,4.561,0,0,0,.072-.78V204.856l12.5-8.331a4.549,4.549,0,0,0,2.026-3.786V163.6h-9.1Zm1.815,57.5a11.789,11.789,0,1,1-11.789-11.789,11.8,11.8,0,0,1,11.789,11.789" fill="#6daf93"/>
    <path id="Path_22" data-name="Path 22" d="M232.575,135.932l-9.6-8.533a4.553,4.553,0,0,0-3.023-1.149H200.589a4.53,4.53,0,0,0-.723.063,20.894,20.894,0,1,0,1.618,9.035h16.739l9.6,8.533a4.551,4.551,0,0,0,3.023,1.149h10.985v-9.1ZM180.62,146.219a11.789,11.789,0,1,1,11.789-11.789,11.8,11.8,0,0,1-11.789,11.789" fill="#6daf93"/>
    <path id="Path_23" data-name="Path 23" d="M336.165,239.886a4.549,4.549,0,0,0,0,9.1h30.35v-9.1Z" fill="#6daf93"/>
    <path id="Path_24" data-name="Path 24" d="M220.048,328.8a4.549,4.549,0,0,0-3.217,1.332L203.64,343.325H186.16a4.64,4.64,0,0,0-.661.053,20.882,20.882,0,1,0-.253,8.953,4.512,4.512,0,0,0,.914.092h19.365a4.548,4.548,0,0,0,3.216-1.332L221.932,337.9h45.409v-9.1Zm-55.067,30.259a11.789,11.789,0,1,1,11.789-11.789,11.8,11.8,0,0,1-11.789,11.789" fill="#6daf93"/>
    <path id="Path_25" data-name="Path 25" d="M291.03,313.363,265.505,327.79a4.549,4.549,0,0,0-2.311,3.961v38.684a20.9,20.9,0,1,0,9.1.544V334.4l25.526-14.427a4.553,4.553,0,0,0,2.311-3.961V268.724h-9.1Zm-12.707,77.69a11.789,11.789,0,1,1-11.789-11.789,11.8,11.8,0,0,1,11.789,11.789" fill="#6daf93"/>
    <path id="Path_26" data-name="Path 26" d="M266.916,290.349l-8.331-12.5a4.551,4.551,0,0,0-3.785-2.026H230.594a4.561,4.561,0,0,0-.78.072,20.889,20.889,0,1,0,0,8.955,4.561,4.561,0,0,0,.78.072h21.771l8.331,12.5a4.549,4.549,0,0,0,3.786,2.026h29.139v-9.1Zm-57.5,1.815A11.789,11.789,0,1,1,221.2,280.375a11.8,11.8,0,0,1-11.789,11.789" fill="#6daf93"/>
    <path id="Path_27" data-name="Path 27" d="M458.311,354.72l-9.6-8.533a4.553,4.553,0,0,0-3.023-1.149H426.325a4.528,4.528,0,0,0-.723.063,20.894,20.894,0,1,0,1.618,9.035h16.739l9.6,8.533a4.551,4.551,0,0,0,3.023,1.149h10.985v-9.1Zm-51.955,10.287a11.789,11.789,0,1,1,11.789-11.789,11.8,11.8,0,0,1-11.789,11.789" fill="#6daf93"/>
    <path id="Path_28" data-name="Path 28" d="M342.337,351.36a4.549,4.549,0,0,0,1.332,3.217l13.191,13.191v17.48a4.64,4.64,0,0,0,.053.661,20.882,20.882,0,1,0,8.953.253,4.512,4.512,0,0,0,.092-.914V365.883a4.548,4.548,0,0,0-1.332-3.216l-13.191-13.191V304.067h-9.1ZM372.6,406.427a11.789,11.789,0,1,1-11.789-11.789A11.8,11.8,0,0,1,372.6,406.427" fill="#6daf93"/>
    <path id="Path_29" data-name="Path 29" d="M425.174,315.613l-14.427-25.525a4.549,4.549,0,0,0-3.961-2.311H368.1a20.9,20.9,0,1,0-.544,9.1h36.574L418.559,322.4a4.552,4.552,0,0,0,3.961,2.311h47.293v-9.1ZM347.484,302.9a11.789,11.789,0,1,1,11.789-11.789A11.8,11.8,0,0,1,347.484,302.9" fill="#6daf93"/>
    <path id="Path_30" data-name="Path 30" d="M407.292,270.968l12.5-8.331a4.551,4.551,0,0,0,2.026-3.785V234.646a4.561,4.561,0,0,0-.072-.78,20.889,20.889,0,1,0-8.955,0,4.561,4.561,0,0,0-.072.78v21.771l-12.5,8.331a4.549,4.549,0,0,0-2.026,3.786v29.139h9.1Zm-1.815-57.5a11.789,11.789,0,1,1,11.789,11.789,11.8,11.8,0,0,1-11.789-11.789" fill="#6daf93"/>
    <path id="Path_31" data-name="Path 31" d="M329.768,296.668a4.549,4.549,0,0,0,0-9.1h-30.35v9.1Z" fill="#6daf93"/>
    <path id="Path_32" data-name="Path 32" d="M236.664,241.3,222.237,215.78a4.549,4.549,0,0,0-3.961-2.311H179.592a20.9,20.9,0,1,0-.544,9.1h36.574l14.427,25.525a4.551,4.551,0,0,0,3.961,2.311H281.3v-9.1ZM158.974,228.6a11.789,11.789,0,1,1,11.789-11.789A11.8,11.8,0,0,1,158.974,228.6" fill="#6daf93"/>
  </g>
</svg>
